<?xml version="1.0" encoding="iso-8859-1"?>
<!-- Uploaded to: SVG Repo, www.svgrepo.com, Generator: SVG Repo Mixer Tools -->
<svg height="800px" width="800px" version="1.1" id="Layer_1" xmlns="http://www.w3.org/2000/svg" xmlns:xlink="http://www.w3.org/1999/xlink" 
	 viewBox="0 0 503.607 503.607" xml:space="preserve">
<g transform="translate(1 1)">
	<polygon style="fill:#FFE100;" points="108.115,418.672 393.492,418.672 393.492,208.836 108.115,208.836 	"/>
	<polygon style="fill:#FFA800;" points="368.311,418.672 393.492,418.672 393.492,208.836 368.311,208.836 	"/>
	<polygon style="fill:#FFFFFF;" points="108.115,418.672 133.295,418.672 133.295,208.836 108.115,208.836 	"/>
	<g>
		<path style="fill:#FFE100;" d="M275.984,494.213h-50.361c-5.036,0-8.393-3.357-8.393-8.393v-67.148h67.148v67.148
			C284.377,490.856,281.02,494.213,275.984,494.213"/>
		<path style="fill:#FFE100;" d="M317.951,208.836H183.656v-75.541c0-5.036,3.357-8.393,8.393-8.393h117.508
			c5.036,0,8.393,3.357,8.393,8.393V208.836z"/>
	</g>
	<path style="fill:#FFA800;" d="M309.557,124.902h-25.18c5.036,0,8.393,3.357,8.393,8.393v75.541h25.18v-75.541
		C317.951,129.098,314.593,124.902,309.557,124.902"/>
	<path style="fill:#FFFFFF;" d="M192.049,124.902h25.18c-5.036,0-8.393,3.357-8.393,8.393v75.541h-25.18v-75.541
		C183.656,129.098,187.013,124.902,192.049,124.902"/>
	<g>
		<path style="fill:#63D3FD;" d="M158.475,477.426h-16.787c-5.036,0-8.393-3.357-8.393-8.393v-50.361h33.574v50.361
			C166.869,474.069,163.511,477.426,158.475,477.426"/>
		<path style="fill:#63D3FD;" d="M359.918,477.426h-16.787c-5.036,0-8.393-3.357-8.393-8.393v-50.361h33.574v50.361
			C368.311,474.069,364.954,477.426,359.918,477.426"/>
		<path style="fill:#63D3FD;" d="M351.525,175.262h16.787c5.036,0,8.393,3.357,8.393,8.393v25.18h-33.574v-25.18
			C343.131,179.459,346.488,175.262,351.525,175.262"/>
		<path style="fill:#63D3FD;" d="M133.295,175.262h16.787c5.036,0,8.393,3.357,8.393,8.393v25.18h-33.574v-25.18
			C124.902,179.459,128.259,175.262,133.295,175.262"/>
		<path style="fill:#63D3FD;" d="M310.397,91.328H191.21c-9.233,0-16.787-6.715-17.626-15.948l-5.036-48.682
			c-0.839-10.072,7.554-19.305,17.626-19.305h129.259c10.072,0,18.466,9.233,17.626,19.305l-5.036,48.682
			C327.184,84.613,319.629,91.328,310.397,91.328"/>
	</g>
	<path d="M393.492,427.066H108.115c-5.036,0-8.393-3.357-8.393-8.393V208.836c0-5.036,3.357-8.393,8.393-8.393h285.377
		c5.036,0,8.393,3.357,8.393,8.393v209.836C401.885,423.708,398.528,427.066,393.492,427.066z M116.508,410.279h268.59V217.229
		h-268.59V410.279z"/>
	<path d="M275.984,502.607h-50.361c-9.233,0-16.787-7.554-16.787-16.787v-67.148c0-5.036,3.357-8.393,8.393-8.393h67.148
		c5.036,0,8.393,3.357,8.393,8.393v67.148C292.77,495.052,285.216,502.607,275.984,502.607z M275.984,485.82v8.393V485.82
		L275.984,485.82z M225.623,427.066v58.754h50.361v-58.754H225.623z"/>
	<path d="M317.951,217.229H183.656c-5.036,0-8.393-3.357-8.393-8.393v-75.541c0-9.233,7.554-16.787,16.787-16.787h117.508
		c9.233,0,16.787,7.554,16.787,16.787v75.541C326.344,213.872,322.987,217.229,317.951,217.229z M192.049,200.443h117.508v-67.148
		H192.049V200.443z"/>
	<path d="M158.475,485.82h-16.787c-9.233,0-16.787-7.554-16.787-16.787v-50.361c0-5.036,3.357-8.393,8.393-8.393h33.574
		c5.036,0,8.393,3.357,8.393,8.393v50.361C175.262,478.266,167.708,485.82,158.475,485.82z M158.475,469.033v8.393V469.033
		L158.475,469.033z M141.689,427.066v41.967h16.787v-41.967H141.689z"/>
	<path d="M359.918,485.82h-16.787c-9.233,0-16.787-7.554-16.787-16.787v-50.361c0-5.036,3.357-8.393,8.393-8.393h33.574
		c5.036,0,8.393,3.357,8.393,8.393v50.361C376.705,478.266,369.151,485.82,359.918,485.82z M359.918,469.033v8.393V469.033
		L359.918,469.033z M343.131,427.066v41.967h16.787v-41.967H343.131z"/>
	<path d="M376.705,217.229h-33.574c-5.036,0-8.393-3.357-8.393-8.393v-25.18c0-9.233,7.554-16.787,16.787-16.787h16.787
		c9.233,0,16.787,7.554,16.787,16.787v25.18C385.098,213.872,381.741,217.229,376.705,217.229z M351.525,200.443h16.787v-16.787
		h-16.787V200.443z"/>
	<path d="M158.475,217.229h-33.574c-5.036,0-8.393-3.357-8.393-8.393v-25.18c0-9.233,7.554-16.787,16.787-16.787h16.787
		c9.233,0,16.787,7.554,16.787,16.787v25.18C166.869,213.872,163.511,217.229,158.475,217.229z M133.295,200.443h16.787v-16.787
		h-16.787V200.443z"/>
	<path d="M401.885,267.59H99.721c-5.036,0-8.393-3.357-8.393-8.393s3.357-8.393,8.393-8.393h302.164
		c5.036,0,8.393,3.357,8.393,8.393S406.921,267.59,401.885,267.59z"/>
	<path d="M401.885,301.164H99.721c-5.036,0-8.393-3.357-8.393-8.393s3.357-8.393,8.393-8.393h302.164
		c5.036,0,8.393,3.357,8.393,8.393S406.921,301.164,401.885,301.164z"/>
	<path d="M401.885,334.738H99.721c-5.036,0-8.393-3.357-8.393-8.393c0-5.036,3.357-8.393,8.393-8.393h302.164
		c5.036,0,8.393,3.357,8.393,8.393C410.279,331.38,406.921,334.738,401.885,334.738z"/>
	<path d="M401.885,368.311H99.721c-5.036,0-8.393-3.357-8.393-8.393c0-5.036,3.357-8.393,8.393-8.393h302.164
		c5.036,0,8.393,3.357,8.393,8.393C410.279,364.954,406.921,368.311,401.885,368.311z"/>
	<path d="M292.77,469.033h-83.934c-5.036,0-8.393-3.357-8.393-8.393c0-5.036,3.357-8.393,8.393-8.393h83.934
		c5.036,0,8.393,3.357,8.393,8.393C301.164,465.675,297.807,469.033,292.77,469.033z"/>
	<path d="M310.397,99.721H191.21c-13.43,0-24.341-10.072-26.02-23.502l-5.036-48.682c-0.839-7.554,1.679-14.269,6.715-20.144
		C171.905,1.518,178.62-1,186.174-1h129.259c7.554,0,14.269,3.357,19.305,8.393c5.036,5.036,7.554,12.59,6.715,20.144l-5.036,48.682
		C334.738,89.649,323.826,99.721,310.397,99.721z M186.174,15.787c-2.518,0-5.036,0.839-6.715,3.357
		c-1.679,1.679-2.518,4.197-2.518,6.715l5.036,48.682c0.839,5.036,4.197,8.393,9.233,8.393h119.187c5.036,0,8.393-3.357,9.233-8.393
		l5.036-48.682c0-2.518-0.839-5.036-2.518-6.715c-1.679-2.518-4.197-3.357-6.715-3.357H186.174z"/>
	<polygon points="192.049,49.361 208.836,49.361 208.836,32.574 192.049,32.574 	"/>
	<polygon points="208.836,66.148 225.623,66.148 225.623,49.361 208.836,49.361 	"/>
	<polygon points="225.623,49.361 242.41,49.361 242.41,32.574 225.623,32.574 	"/>
	<polygon points="242.41,66.148 259.197,66.148 259.197,49.361 242.41,49.361 	"/>
	<polygon points="259.197,49.361 275.984,49.361 275.984,32.574 259.197,32.574 	"/>
	<polygon points="275.984,66.148 292.77,66.148 292.77,49.361 275.984,49.361 	"/>
	<polygon points="292.77,49.361 309.557,49.361 309.557,32.574 292.77,32.574 	"/>
</g>
</svg>